<svg width="73" height="41" viewBox="0 0 73 41" fill="none" xmlns="http://www.w3.org/2000/svg">
<path d="M54.5618 40.1764C54.0385 39.6522 53.8195 39.0532 53.8195 38.3045V2.91482C53.8195 2.16606 54.0438 1.56705 54.5618 1.04292C55.0851 0.518784 55.6778 0.294156 56.3453 0.294156C57.0928 0.294156 57.6855 0.518784 58.2088 1.04292C58.7321 1.56705 58.9511 2.16606 58.9511 2.91482V38.3793C58.9511 39.1281 58.7268 39.7271 58.2088 40.2512C57.6855 40.7754 57.0928 41 56.3453 41C55.6778 40.9251 55.0797 40.7005 54.5618 40.1764Z" fill="black"/>
<path d="M46.6002 1.04292C46.2264 0.668536 45.6337 0.369032 45.1104 0.294156C44.5871 0.21928 40.94 0.21928 40.2725 0.443908C39.6051 0.668536 39.007 1.04292 38.4837 1.56705L25.978 13.1889C25.6042 13.5633 25.3799 13.8628 25.3052 14.1623C25.0809 14.8362 25.0809 15.51 25.3052 16.1091C25.6042 16.7829 26.0527 17.2322 26.795 17.4568C27.3183 17.6066 27.7615 17.6815 28.2848 17.6066C28.8081 17.5317 29.2513 17.2322 29.625 16.8578L42.1308 4.48722V25.6344H36.0274C34.7619 25.6344 33.7206 26.6077 33.7206 27.8806C33.6459 29.1535 34.6871 30.282 35.9527 30.282H42.2055V38.3793C42.2055 39.1281 42.4298 39.7271 42.9478 40.2512C43.4711 40.7754 44.0638 41 44.8114 41C45.5589 41 46.1516 40.7754 46.6749 40.2512C47.1929 39.7271 47.4172 39.1281 47.4172 38.3793V2.91482C47.3424 2.16606 47.0434 1.56705 46.6002 1.04292Z" fill="black"/>
<path d="M27.393 23.7036C26.0527 22.2115 24.4882 21.0937 22.6299 20.3502C20.7664 19.6068 18.3902 18.933 15.3358 18.1895C13.029 17.6654 11.1655 17.1466 9.82518 16.6974C8.48489 16.2481 7.36888 15.5796 6.47714 14.6864C5.5854 13.7932 5.21162 12.6701 5.21162 11.333C5.21162 9.2472 6.17811 7.68015 8.04169 6.56235C9.90527 5.44456 12.3616 4.9953 15.3358 4.84555C16.9751 4.77067 18.4596 4.9953 19.0576 4.9953C19.1324 4.9953 19.4314 5.07018 19.5062 5.07018C20.8465 5.07018 21.8877 4.02726 21.8877 2.68484C21.8877 1.49217 20.996 0.524132 19.88 0.37438C19.5809 0.299504 17.8722 0 14.7431 0C11.614 0 9.01353 0.524132 6.77617 1.56705C4.54414 2.60997 2.90484 4.02726 1.71407 5.81894C0.592715 7.59992 0 9.536 0 11.7021C0 14.1623 0.672811 16.1732 2.08251 17.6654C3.42279 19.1576 5.0621 20.2754 6.9951 21.0188C8.9281 21.7622 11.3844 22.511 14.4387 23.3292C16.7455 23.9283 18.5343 24.447 19.7999 24.8963C21.0654 25.3456 22.1066 25.9392 22.9236 26.688C23.7406 27.4314 24.1892 28.4048 24.1892 29.5226C24.1892 33.8493 20.9159 36.01 14.4387 36.0849H9.07761L13.8407 31.6084C14.7324 30.7901 14.8819 29.4477 14.2145 28.4796C13.4722 27.3619 11.9077 27.0624 10.7917 27.8111C10.7169 27.886 10.6422 27.9609 10.4926 28.0357L1.19077 36.7535C0.22427 37.6466 0.149514 39.2137 1.04126 40.2566C1.4898 40.7807 2.15727 41 2.83008 41H14.7378C17.6426 41 20.1737 40.5507 22.4057 39.5827C24.6377 38.6147 26.3518 37.3471 27.5425 35.6303C28.7333 33.9135 29.4061 32.0523 29.4061 29.8916C29.4061 27.2816 28.7333 25.1958 27.3984 23.7036" fill="black"/>
<path d="M71.6971 38.1654C71.6971 37.5504 71.5422 37.1706 71.3126 36.8658C71.083 36.5609 70.6238 36.4807 70.0151 36.4807H68.4078C67.7991 36.4807 67.4146 36.6358 67.1102 36.9406C66.8059 37.2455 66.7258 37.7054 66.7258 38.2456V39.5453H71.7719C71.6971 39.5453 71.6971 38.1654 71.6971 38.1654ZM72.9199 40.9251C72.8451 41 72.7651 41 72.7651 41H65.7272C65.6525 41 65.5724 41 65.5724 40.9251C65.5225 40.8752 65.4976 40.8235 65.4976 40.77V38.1654C65.4976 36.0207 66.4908 34.9457 68.4025 34.9457H70.0845C71.0777 34.9457 71.8413 35.2506 72.3005 35.7908C72.7597 36.3256 72.9893 37.0904 72.9893 38.1654V40.8449L72.9146 40.9198L72.9199 40.9251Z" fill="black"/>
<path d="M72.9252 33.2664C72.8505 33.3412 72.7704 33.3412 72.7704 33.3412H65.7326C65.6578 33.3412 65.5777 33.3412 65.5777 33.2664C65.5777 33.1915 65.503 33.1113 65.503 33.1113V32.1165C65.503 32.0416 65.503 31.9614 65.5777 31.9614C65.6525 31.9614 65.6525 31.8865 65.7326 31.8865H72.7704C72.8451 31.8865 72.9252 31.8865 72.9252 31.9614C72.9252 32.0363 73 32.0363 73 32.1165V33.1113C73 33.1113 72.9252 33.1861 72.9252 33.2664Z" fill="black"/>
<path d="M72.3112 29.3568C71.7772 29.8916 71.0884 30.2018 70.1699 30.2767H68.1835C67.2651 30.2767 66.5763 29.9718 66.117 29.3568C65.5831 28.8219 65.3534 28.0571 65.3534 27.057C65.3534 26.3671 65.5083 25.8322 65.6578 25.3723C65.8874 24.9123 66.1918 24.5326 66.5015 24.3026C66.8059 24.0727 67.1903 23.9176 67.4947 23.9176C67.5695 23.9176 67.6496 23.9176 67.6496 23.9924C67.6994 24.0424 67.7243 24.0941 67.7243 24.1475V25.2974C67.7243 25.3723 67.7243 25.4525 67.6496 25.4525C67.5748 25.4525 67.5748 25.5274 67.4947 25.5274C67.2651 25.6023 67.0355 25.8322 66.8059 26.0622C66.651 26.2922 66.5015 26.6773 66.5015 27.057C66.5015 27.5918 66.6564 27.9769 66.886 28.2069C67.1156 28.5117 67.5748 28.6668 68.1088 28.6668H69.9457C70.5597 28.6668 70.9389 28.5117 71.2432 28.2069C71.5476 27.902 71.6277 27.517 71.6277 27.057C71.6277 26.5222 71.4728 26.1371 71.2432 25.8322C70.9389 25.5274 70.5544 25.3723 70.0204 25.3723H69.716V26.6773C69.716 26.7522 69.716 26.8324 69.6413 26.8324C69.5665 26.9073 69.4864 26.9073 69.4864 26.9073H68.8724C68.7976 26.9073 68.7175 26.9073 68.7175 26.8324C68.7175 26.7575 68.6427 26.6773 68.6427 26.6773V24.0727C68.6427 23.9978 68.6427 23.9176 68.7175 23.9176C68.7923 23.8427 68.8724 23.8427 68.8724 23.8427H70.0204C70.6345 23.8427 71.1685 23.9978 71.5529 24.2278C71.9374 24.4577 72.3165 24.8428 72.5461 25.3776C72.7757 25.8376 72.9306 26.4526 72.9306 27.0624C73.0854 28.0571 72.8558 28.8219 72.3165 29.3621" fill="black"/>
<path d="M72.9252 22.2328C72.8505 22.3077 72.7704 22.3077 72.7704 22.3077H65.7326C65.6578 22.3077 65.5777 22.3077 65.5777 22.2328C65.5777 22.158 65.503 22.158 65.503 22.0777V21.0027C65.503 20.9279 65.503 20.8476 65.5777 20.8476C65.6525 20.8476 65.6525 20.7728 65.7326 20.7728H72.7704C72.8451 20.7728 72.9252 20.7728 72.9252 20.8476C72.9252 20.9225 73 20.9225 73 21.0027V22.0777C73 22.0777 72.9252 22.1526 72.9252 22.2328Z" fill="black"/>
<path d="M72.9252 17.1787C72.8505 17.2536 72.7704 17.2536 72.7704 17.2536H66.8059V19.2485C66.8059 19.3234 66.8059 19.4036 66.7311 19.4036C66.6564 19.4036 66.5763 19.4785 66.5763 19.4785H65.7326C65.6578 19.4785 65.5777 19.4785 65.5777 19.4036C65.5279 19.3537 65.503 19.302 65.503 19.2485V13.7344C65.503 13.6595 65.503 13.5793 65.5777 13.5793C65.6525 13.5044 65.7326 13.5044 65.7326 13.5044H66.5763C66.651 13.5044 66.7311 13.5044 66.7311 13.5793C66.7809 13.6292 66.8059 13.6809 66.8059 13.7344V15.724H72.7704C72.8451 15.724 72.9252 15.724 72.9252 15.7989C72.9252 15.8737 73 15.8737 73 15.954V16.9487C73 17.1038 72.9252 17.1787 72.9252 17.1787Z" fill="black"/>
<path d="M70.2447 11.3544V8.9049L66.8806 10.1297L70.2447 11.3544ZM72.9199 13.6542C72.8701 13.7041 72.8185 13.7291 72.7651 13.7291H72.6903L65.7326 11.1244C65.5777 11.0496 65.503 10.8945 65.503 10.7394V9.51461C65.503 9.35951 65.5777 9.20976 65.7326 9.12953L72.6903 6.52491H72.7651C72.8398 6.52491 72.9199 6.52491 72.9199 6.59979C72.9199 6.67467 72.9947 6.67467 72.9947 6.75489V7.74967C72.9947 7.90477 72.9199 7.97965 72.7651 8.05453L71.4675 8.58935V11.809L72.7651 12.269C72.9199 12.3439 72.9947 12.4241 72.9947 12.5738V13.4937C72.9947 13.5686 72.9199 13.6488 72.9199 13.6488" fill="black"/>
<path d="M72.9252 5.38038C72.8505 5.45526 72.7704 5.45526 72.7704 5.45526H65.7326C65.6578 5.45526 65.5777 5.45526 65.5777 5.38038C65.503 5.3055 65.503 5.22528 65.503 5.22528V4.15027C65.503 4.0754 65.503 3.99517 65.5777 3.99517C65.6525 3.99517 65.6525 3.9203 65.7326 3.9203H71.6971V0.475998C71.6971 0.401122 71.6971 0.320897 71.7719 0.320897C71.8466 0.246021 71.9267 0.246021 71.9267 0.246021H72.6903C72.765 0.246021 72.8451 0.246021 72.8451 0.320897C72.8451 0.395774 73 0.395774 73 0.475998V5.1504C73 5.3055 72.9252 5.3055 72.9252 5.38038Z" fill="black"/>
</svg>
